<?xml version="1.0" encoding="utf-8"?>
<!-- Generator: Adobe Illustrator 23.1.0, SVG Export Plug-In . SVG Version: 6.00 Build 0)  -->
<svg version="1.1" id="Icons" xmlns="http://www.w3.org/2000/svg" xmlns:xlink="http://www.w3.org/1999/xlink" x="0px" y="0px"
	 viewBox="0 0 512 512" style="enable-background:new 0 0 512 512;" xml:space="preserve">
<style type="text/css">
	.st0{fill:#FFFFFF;}
</style>
<path class="st0" d="M300.6,27.7H280c-3.8,0-6.9-3.1-6.9-6.9s3.1-6.9,6.9-6.9h20.5c3.8,0,6.9,3.1,6.9,6.9S304.4,27.7,300.6,27.7z"/>
<path class="st0" d="M401.3,498.2H110.7c-3.8,0-6.9-3.1-6.9-6.9V20.8c0-3.8,3.1-6.9,6.9-6.9H163c3.8,0,6.9,3.1,6.9,6.9
	s-3.1,6.9-6.9,6.9h-45.4v456.6h276.8V27.7H349c-3.8,0-6.9-3.1-6.9-6.9s3.1-6.9,6.9-6.9h52.3c3.8,0,6.9,3.1,6.9,6.9v470.5
	C408.2,495.1,405.1,498.2,401.3,498.2z"/>
<path class="st0" d="M231.6,27.7h-20.1c-3.8,0-6.9-3.1-6.9-6.9s3.1-6.9,6.9-6.9h20.1c3.8,0,6.9,3.1,6.9,6.9S235.4,27.7,231.6,27.7z"
	/>
<path class="st0" d="M314.8,498.2H197.2c-3.8,0-6.9-3.1-6.9-6.9V345.9c0-3.8,3.1-6.9,6.9-6.9h117.6c3.8,0,6.9,3.1,6.9,6.9v145.3
	C321.7,495.1,318.6,498.2,314.8,498.2z M204.1,484.3h103.8V352.9H204.1V484.3z"/>
<path class="st0" d="M491.2,498.2h-89.9c-3.8,0-6.9-3.1-6.9-6.9V159.1c0-3.8,3.1-6.9,6.9-6.9h89.9c3.8,0,6.9,3.1,6.9,6.9v332.1
	C498.2,495.1,495.1,498.2,491.2,498.2z M408.2,484.3h76.1V166.1h-76.1V484.3z"/>
<path class="st0" d="M456.6,258.6h-55.4c-3.8,0-6.9-3.1-6.9-6.9v-32.9c0-3.8,3.1-6.9,6.9-6.9h55.4c3.8,0,6.9,3.1,6.9,6.9v32.9
	C463.6,255.5,460.5,258.6,456.6,258.6z M408.2,244.8h41.5v-19h-41.5V244.8z"/>
<path class="st0" d="M456.6,348.5h-55.4c-3.8,0-6.9-3.1-6.9-6.9v-32.9c0-3.8,3.1-6.9,6.9-6.9h55.4c3.8,0,6.9,3.1,6.9,6.9v32.9
	C463.6,345.4,460.5,348.5,456.6,348.5z M408.2,334.7h41.5v-19h-41.5V334.7z"/>
<path class="st0" d="M456.6,438.5h-55.4c-3.8,0-6.9-3.1-6.9-6.9v-32.9c0-3.8,3.1-6.9,6.9-6.9h55.4c3.8,0,6.9,3.1,6.9,6.9v32.9
	C463.6,435.4,460.5,438.5,456.6,438.5z M408.2,424.6h41.5v-19h-41.5V424.6z"/>
<path class="st0" d="M110.7,498.2H20.8c-3.8,0-6.9-3.1-6.9-6.9V159.1c0-3.8,3.1-6.9,6.9-6.9h89.9c3.8,0,6.9,3.1,6.9,6.9v332.1
	C117.6,495.1,114.5,498.2,110.7,498.2z M27.7,484.3h76.1V166.1H27.7V484.3z"/>
<path class="st0" d="M110.7,258.6H55.4c-3.8,0-6.9-3.1-6.9-6.9v-32.9c0-3.8,3.1-6.9,6.9-6.9h55.4c3.8,0,6.9,3.1,6.9,6.9v32.9
	C117.6,255.5,114.5,258.6,110.7,258.6z M62.3,244.8h41.5v-19H62.3V244.8z"/>
<path class="st0" d="M110.7,348.5H55.4c-3.8,0-6.9-3.1-6.9-6.9v-32.9c0-3.8,3.1-6.9,6.9-6.9h55.4c3.8,0,6.9,3.1,6.9,6.9v32.9
	C117.6,345.4,114.5,348.5,110.7,348.5z M62.3,334.7h41.5v-19H62.3V334.7z"/>
<path class="st0" d="M110.7,438.5H55.4c-3.8,0-6.9-3.1-6.9-6.9v-32.9c0-3.8,3.1-6.9,6.9-6.9h55.4c3.8,0,6.9,3.1,6.9,6.9v32.9
	C117.6,435.4,114.5,438.5,110.7,438.5z M62.3,424.6h41.5v-19H62.3V424.6z"/>
<path class="st0" d="M256,191.2c-3.8,0-6.9-3.1-6.9-6.9v-57.2c0-3.8,3.1-6.9,6.9-6.9c3.8,0,6.9,3.1,6.9,6.9v57.2
	C262.9,188.1,259.8,191.2,256,191.2z"/>
<path class="st0" d="M256,191.2c-3.8,0-6.9-3.1-6.9-6.9v-57.2c0-3.8,3.1-6.9,6.9-6.9c3.8,0,6.9,3.1,6.9,6.9v57.2
	C262.9,188.1,259.8,191.2,256,191.2z"/>
<path class="st0" d="M284.6,162.6h-57.2c-3.8,0-6.9-3.1-6.9-6.9c0-3.8,3.1-6.9,6.9-6.9h57.2c3.8,0,6.9,3.1,6.9,6.9
	C291.5,159.5,288.4,162.6,284.6,162.6z"/>
<path class="st0" d="M256,225.7c-38.7,0-70.1-31.4-70.1-70.1s31.4-70.1,70.1-70.1s70.1,31.4,70.1,70.1
	C326,194.3,294.7,225.7,256,225.7z M256,99.5c-31,0-56.2,25.2-56.2,56.2s25.2,56.2,56.2,56.2s56.2-25.2,56.2-56.2
	C312.2,124.6,287,99.5,256,99.5z"/>
</svg>
